<svg width="16" height="16" viewBox="0 0 16 16" fill="none" xmlns="http://www.w3.org/2000/svg">
<path fill-rule="evenodd" clip-rule="evenodd" d="M14 8C14 11.3137 11.3137 14 8 14C4.68629 14 2 11.3137 2 8C2 4.68629 4.68629 2 8 2C11.3137 2 14 4.68629 14 8ZM4.62623 11.3738C4.2357 10.9832 4.2357 10.3501 4.62623 9.95956L6.58579 8L4.62623 6.04044C4.2357 5.64992 4.2357 5.01675 4.62623 4.62623C5.01675 4.2357 5.64992 4.2357 6.04044 4.62623L8 6.58579L9.95956 4.62623C10.3501 4.2357 10.9832 4.2357 11.3738 4.62623C11.7643 5.01675 11.7643 5.64992 11.3738 6.04044L9.41421 8L11.3738 9.95956C11.7643 10.3501 11.7643 10.9832 11.3738 11.3738C10.9832 11.7643 10.3501 11.7643 9.95956 11.3738L8 9.41421L6.04044 11.3738C5.64992 11.7643 5.01675 11.7643 4.62623 11.3738Z" fill="#D52626"/>
</svg>
